<svg xmlns="http://www.w3.org/2000/svg" width="111" height="32" viewBox="0 0 111 32" fill="none">
  <g clip-path="url(#clip0_591_8555)">
    <path fill-rule="evenodd" clip-rule="evenodd" d="M17.1582 9.93577C14.3251 13.7265 11.2526 22.4253 17.637 31.2039C16.9586 31.2837 16.2404 31.3635 15.5221 31.3635C10.6939 31.3635 6.34453 29.129 3.51144 25.6574C4.10998 23.383 7.5017 14.7241 17.1582 9.93577ZM15.6418 15.7616C15.8015 21.4676 20.9489 26.8146 27.4929 25.6973C25.4579 28.1713 22.6647 30.0068 19.4326 30.8448C17.8764 29.1689 13.926 23.1835 15.6418 15.7616ZM15.5221 0.279327C18.8341 0.279327 21.9465 1.3168 24.4603 3.11242C23.383 2.9129 16.6394 1.3966 10.0555 6.18492C20.7893 1.79563 26.7747 4.74843 28.1314 6.66376C30.326 9.77616 28.6501 12.729 27.6526 13.3275C27.6925 12.729 28.4107 7.58152 20.9888 8.14015C10.7338 8.89831 3.79075 20.0312 2.35426 24.0214C0.877859 21.6273 0 18.8341 0 15.8015C0 7.22239 6.94307 0.279327 15.5221 0.279327ZM30.9645 13.926C31.0443 14.5645 31.0842 15.163 31.0842 15.8015C31.0842 18.5548 30.3659 21.1484 29.0891 23.4229C22.9839 25.4579 18.5547 21.308 17.7567 19.3927C22.7445 22.2258 29.3684 19.1134 30.9645 13.926Z" fill="#0084FF"/>
    <path fill-rule="evenodd" clip-rule="evenodd" d="M98.7991 26.5353C99.1981 26.5353 99.5173 26.5752 99.7967 26.655C100.076 26.7348 100.275 26.8944 100.435 27.054C100.555 27.2136 100.675 27.453 100.754 27.7323C100.794 27.9718 100.834 28.291 100.834 28.6501C100.834 29.0092 100.794 29.2886 100.714 29.5679C100.635 29.8472 100.515 30.0866 100.355 30.2462C100.196 30.4457 99.9962 30.5654 99.7169 30.6452C99.4774 30.725 99.1582 30.7649 98.7592 30.7649C98.3602 30.7649 98.0409 30.725 97.7616 30.6452C97.4823 30.5654 97.2828 30.4058 97.1232 30.2462C96.9636 30.0467 96.8838 29.8472 96.804 29.5679C96.7641 29.2886 96.7241 29.0092 96.7241 28.6501C96.7241 28.291 96.7641 28.0117 96.8439 27.7323C96.9237 27.453 97.0434 27.2136 97.203 27.054C97.3626 26.8944 97.5621 26.7348 97.8414 26.655C98.0808 26.5752 98.4001 26.5353 98.7991 26.5353ZM56.0234 25.418L56.9408 27.4515L57.9387 25.418H59.4551L57.6594 28.6102V30.725H56.2229V28.6102L54.4273 25.418H56.0234ZM89.7811 29.5679V30.725H88.5042V29.5679H89.7811ZM78.6083 25.418V27.1338L78.6785 27.0408C78.9289 26.747 79.3411 26.6151 79.8852 26.6151C80.3242 26.6151 80.6434 26.6949 80.8828 26.8545C81.0923 27.0291 81.2101 27.2647 81.2363 27.5882L81.2419 27.7323V30.6851H79.8852V27.9319C79.8852 27.7323 79.8453 27.5727 79.7655 27.4929C79.6857 27.4131 79.5261 27.3732 79.3266 27.3732C78.8876 27.3732 78.6499 27.5744 78.6133 27.946L78.6083 28.0516V30.725H77.2516V25.418H78.6083ZM39.3441 25.418V26.2959H37.8278V30.725H36.3913V26.2959H34.875V25.418H39.3441ZM107.578 26.6151C108.017 26.6151 108.376 26.7348 108.575 26.9343C108.746 27.1053 108.859 27.3349 108.912 27.6484L108.934 27.8122V30.725H107.578V27.9319C107.578 27.7323 107.538 27.6126 107.458 27.5328C107.378 27.453 107.258 27.4131 107.059 27.4131C106.82 27.4131 106.66 27.453 106.54 27.5727C106.44 27.6725 106.368 27.8 106.347 27.9782L106.341 28.0915V30.725H104.984V27.9319C104.984 27.7323 104.944 27.6126 104.864 27.5328C104.784 27.453 104.665 27.4131 104.465 27.4131C104.226 27.4131 104.066 27.453 103.947 27.5727C103.847 27.6725 103.775 27.8 103.753 27.9782L103.747 28.0915V30.725H102.39V26.7348H103.667V27.1338L103.767 27.0234C103.907 26.888 104.066 26.7986 104.226 26.7348C104.425 26.655 104.705 26.6151 104.984 26.6151C105.303 26.6151 105.583 26.655 105.782 26.7747C105.982 26.8744 106.098 27.0019 106.177 27.1571L106.221 27.2535L106.298 27.1386C106.408 26.9918 106.548 26.8704 106.74 26.7747C106.979 26.655 107.258 26.6151 107.578 26.6151ZM68.1538 26.6151C68.5928 26.6151 68.912 26.6949 69.1514 26.8146C69.3609 26.9892 69.4787 27.2248 69.5049 27.5483L69.5105 27.6924V30.6452H68.1538V27.892C68.1538 27.6924 68.1139 27.5328 68.0341 27.453C67.9543 27.3732 67.7947 27.3333 67.5952 27.3333C67.1563 27.3333 66.9185 27.5345 66.8819 27.9061L66.8769 28.0117V30.6851H65.5203V26.6949H66.7971V27.1737L66.8773 27.0775C67.0122 26.9232 67.1563 26.8013 67.3558 26.7348C67.5952 26.655 67.8745 26.6151 68.1538 26.6151ZM93.5319 26.5752C94.1305 26.5752 94.6093 26.6949 94.9285 26.9742C95.2123 27.2225 95.3699 27.5338 95.4014 27.9362L95.4074 28.0915H94.1305C94.1305 28.0117 94.0906 27.892 94.0906 27.8122C94.0906 27.7323 94.0507 27.6525 94.0108 27.5727C93.931 27.4929 93.8911 27.4131 93.8113 27.3732C93.7314 27.3333 93.6117 27.2934 93.492 27.2934C93.3324 27.2934 93.2127 27.3333 93.093 27.3732C92.9733 27.4131 92.8935 27.4929 92.8536 27.6126C92.7738 27.7323 92.7339 27.8521 92.7339 28.0516C92.694 28.2112 92.694 28.4107 92.694 28.6501C92.694 28.8895 92.7339 29.1289 92.7339 29.2886C92.7738 29.4881 92.8137 29.6078 92.8536 29.7275C92.9334 29.8472 93.0132 29.927 93.093 29.9669C93.1728 30.0068 93.2925 30.0467 93.4521 30.0467C93.6915 30.0467 93.8512 29.9669 93.9709 29.8073C94.0735 29.6705 94.1174 29.475 94.1279 29.221L94.1305 29.089H95.4074C95.4074 29.6078 95.2477 30.0068 94.9285 30.2861C94.6093 30.5654 94.0906 30.6851 93.3723 30.6851C93.0531 30.6851 92.7339 30.6851 92.4945 30.6053C92.2151 30.5654 92.0156 30.4457 91.856 30.2861C91.6964 30.1265 91.5767 29.927 91.4969 29.6477C91.4171 29.3684 91.3772 29.0491 91.3772 28.6501C91.3772 28.2112 91.4171 27.892 91.5368 27.6126C91.6565 27.3333 91.7762 27.1338 91.9757 26.9742C92.1752 26.8146 92.3748 26.7348 92.6541 26.655C92.9334 26.6151 93.2127 26.5752 93.5319 26.5752ZM73.3412 25.3382C73.82 25.3382 74.219 25.418 74.4984 25.5377C74.7777 25.6574 75.0171 25.7771 75.1368 25.9766C75.2964 26.1761 75.3762 26.3757 75.4161 26.5752C75.4427 26.7082 75.4516 26.8412 75.4545 26.9742L75.456 27.1737H74.0993C74.0993 26.8146 74.0594 26.5353 73.9397 26.3757C73.82 26.216 73.6205 26.1362 73.3013 26.1362C73.1018 26.1362 72.9821 26.1761 72.8623 26.2559C72.7426 26.2959 72.6628 26.4156 72.583 26.5752C72.5431 26.7348 72.5032 26.9343 72.4633 27.1737C72.4234 27.4131 72.4234 27.7323 72.4234 28.0915C72.4234 28.4905 72.4234 28.8097 72.4633 29.0491C72.5032 29.2885 72.5431 29.4881 72.6229 29.6078C72.7027 29.7674 72.7825 29.8472 72.9022 29.8871C73.022 29.927 73.1417 29.9669 73.3013 29.9669C73.421 29.9669 73.5008 29.9669 73.6205 29.927C73.7402 29.8871 73.82 29.8073 73.8998 29.7275C73.9796 29.6477 74.0594 29.4881 74.0993 29.3285C74.1313 29.2008 74.1376 29.022 74.1185 28.8126L74.0993 28.6501H75.456C75.456 28.9294 75.4161 29.2087 75.3762 29.4482C75.3363 29.6876 75.2166 29.8871 75.057 30.0866C74.8974 30.2861 74.6979 30.4058 74.4186 30.5255C74.1392 30.6452 73.7801 30.6851 73.3412 30.6851C72.8224 30.6851 72.4234 30.6053 72.1042 30.4856C71.8249 30.326 71.5855 30.1664 71.4258 29.927C71.2662 29.6876 71.1465 29.4083 71.1066 29.089C71.0667 28.7698 71.0268 28.4107 71.0268 28.0117C71.0268 27.6126 71.0667 27.2535 71.1066 26.9343C71.1465 26.6151 71.2662 26.3358 71.4258 26.0963C71.5855 25.8569 71.785 25.6574 72.1042 25.5377C72.4234 25.418 72.8224 25.3382 73.3412 25.3382ZM41.9378 26.6949V30.6851H40.5811V26.6949H41.9378ZM51.8336 26.6151C52.2327 26.6151 52.5918 26.6949 52.8312 26.8146C53.0407 26.9892 53.1585 27.2248 53.1847 27.5483L53.1903 27.6924V30.6452H51.8336V27.892C51.8336 27.6924 51.7937 27.5328 51.7139 27.453C51.6341 27.3732 51.4745 27.3333 51.275 27.3333C50.8361 27.3333 50.5983 27.5345 50.5617 27.9061L50.5568 28.0117V30.6851H49.2001V26.6949H50.4769V27.1737L50.5571 27.0775C50.692 26.9232 50.8361 26.8013 51.0356 26.7348C51.275 26.655 51.5543 26.6151 51.8336 26.6151ZM62.0886 26.2559C62.767 26.2559 63.3655 26.5752 63.6448 27.054C63.6448 27.1338 63.6847 27.1737 63.7246 27.2535C63.7546 27.3433 63.7845 27.4331 63.7976 27.5397L63.8044 27.6525L63.819 27.6693C63.8388 27.6961 63.8353 27.7141 63.794 27.6798L63.7645 27.6525V30.6053H62.4876V30.1265L62.3874 30.237C62.2482 30.3723 62.0886 30.4617 61.929 30.5255C61.7295 30.5654 61.4502 30.6053 61.131 30.6053C60.8915 30.6053 60.692 30.6053 60.5324 30.5255C60.3728 30.4856 60.2132 30.4058 60.1334 30.2861C60.0536 30.1664 59.9738 30.0467 59.9339 29.927C59.894 29.8073 59.8541 29.6477 59.8541 29.528C59.8541 29.3285 59.894 29.1688 59.9339 29.0491C59.9738 28.8895 60.0536 28.7698 60.1733 28.69C60.2531 28.6501 60.293 28.6102 60.3728 28.5703C60.4526 28.5304 60.5324 28.4905 60.6122 28.4506C60.7319 28.4207 60.8741 28.3683 61.0387 28.3271L61.2108 28.291L61.9689 28.1314C62.2083 28.0915 62.328 28.0516 62.4078 27.9718C62.4876 27.892 62.5276 27.7722 62.5276 27.6525C62.5276 27.4929 62.4478 27.3732 62.3679 27.2934C62.2881 27.2136 62.1285 27.1737 61.8891 27.1737C61.6896 27.1737 61.53 27.2535 61.4103 27.3333C61.3145 27.4291 61.2698 27.5249 61.2558 27.641L61.2507 27.7323V27.8521H60.0536V27.7323C60.0536 26.9742 60.7378 26.3241 61.6273 26.261L61.7694 26.2559H62.0886ZM85.0327 26.2559C85.711 26.2559 86.3095 26.5752 86.5889 27.054C86.6288 27.1338 86.6288 27.1737 86.6687 27.2535C86.6986 27.3433 86.7285 27.4331 86.7416 27.5397L86.7485 27.6525L86.7483 27.6719C86.7476 27.6963 86.7439 27.7118 86.7254 27.683L86.7086 27.6525V30.6053H85.4317V30.1265L85.3315 30.237C85.1923 30.3723 85.0327 30.4617 84.8731 30.5255C84.6735 30.5654 84.3942 30.6053 84.075 30.6053C83.8356 30.6053 83.6361 30.6053 83.4765 30.5255C83.3168 30.4856 83.1572 30.4058 83.0774 30.2861C82.9976 30.1664 82.9178 30.0467 82.8779 29.927C82.838 29.8073 82.7981 29.6477 82.7981 29.528C82.7981 29.3285 82.838 29.1688 82.8779 29.0491C82.9178 28.8895 82.9976 28.7698 83.1173 28.69C83.1971 28.6501 83.237 28.6102 83.3168 28.5703C83.3967 28.5304 83.4765 28.4905 83.5563 28.4506C83.676 28.4207 83.8181 28.3683 83.9827 28.3271L84.1548 28.291L84.913 28.1314C85.1524 28.0915 85.2721 28.0516 85.3519 27.9718C85.4317 27.892 85.4716 27.7722 85.4716 27.6525C85.4716 27.4929 85.3918 27.3732 85.312 27.2934C85.2322 27.2136 85.0726 27.1737 84.8331 27.1737C84.6336 27.1737 84.474 27.2535 84.3543 27.3333C84.2585 27.4291 84.2139 27.5249 84.1998 27.641L84.1947 27.7323V27.8521H82.9976V27.7323C82.9976 26.9742 83.6819 26.3241 84.5714 26.261L84.7134 26.2559H85.0327ZM45.6886 26.2559C46.367 26.2559 46.9655 26.5752 47.2448 27.054C47.2448 27.1338 47.2847 27.1737 47.3246 27.2535C47.3546 27.3433 47.3845 27.4331 47.3976 27.5397L47.4044 27.6525L47.4043 27.6719C47.4035 27.6963 47.3998 27.7118 47.3813 27.683L47.3645 27.6525V30.6053H46.0877V30.1265L45.9874 30.237C45.8482 30.3723 45.6886 30.4617 45.529 30.5255C45.3295 30.5654 45.0502 30.6053 44.731 30.6053C44.4915 30.6053 44.292 30.6053 44.1324 30.5255C43.9728 30.4856 43.8132 30.4058 43.7334 30.2861C43.6536 30.1664 43.5738 30.0467 43.5339 29.927C43.494 29.8073 43.4541 29.6477 43.4541 29.528C43.4541 29.3285 43.494 29.1688 43.5339 29.0491C43.5738 28.8895 43.6536 28.7698 43.7733 28.69C43.8531 28.6501 43.893 28.6102 43.9728 28.5703C44.0526 28.5304 44.1324 28.4905 44.2122 28.4506C44.3319 28.4207 44.4741 28.3683 44.6387 28.3271L44.8108 28.291L45.5689 28.1314C45.8083 28.0915 45.928 28.0516 46.0078 27.9718C46.0877 27.892 46.1276 27.7722 46.1276 27.6525C46.1276 27.4929 46.0477 27.3732 45.9679 27.2934C45.8881 27.2136 45.7285 27.1737 45.4891 27.1737C45.2896 27.1737 45.13 27.2535 45.0103 27.3333C44.9145 27.4291 44.8698 27.5249 44.8558 27.641L44.8507 27.7323V27.8521H43.6536V27.7323C43.6536 26.9742 44.3378 26.3241 45.2273 26.261L45.3694 26.2559H45.6886ZM62.4876 28.6501C62.4078 28.69 62.328 28.7299 62.2083 28.7698C62.0886 28.8097 62.0088 28.8496 61.929 28.8496C61.6497 28.9294 61.4502 28.9693 61.3305 29.089C61.2906 29.089 61.2906 29.1289 61.2507 29.1688C61.2108 29.2486 61.1709 29.3684 61.1709 29.4881C61.1709 29.6477 61.2108 29.7674 61.2906 29.8871C61.3704 30.0068 61.4901 30.0467 61.6896 30.0467C61.7694 30.0467 61.8891 30.0467 61.9689 30.0068C62.0886 29.9669 62.1684 29.927 62.2482 29.8871C62.328 29.8472 62.4078 29.7674 62.4477 29.6876C62.4777 29.6277 62.5076 29.5679 62.5207 29.4912L62.5276 29.4083H62.4876V28.6501ZM85.4317 28.6501C85.3519 28.69 85.2721 28.7299 85.1524 28.7698C85.0726 28.8097 84.9529 28.8496 84.8731 28.8496C84.5937 28.9294 84.3942 28.9693 84.2745 29.089C84.2346 29.089 84.2346 29.1289 84.1947 29.1688C84.1548 29.2486 84.1149 29.3684 84.1149 29.4881C84.1149 29.6477 84.1548 29.7674 84.2346 29.8871C84.3144 30.0068 84.4341 30.0467 84.6336 30.0467C84.7134 30.0467 84.8332 30.0467 84.913 30.0068C85.0327 29.9669 85.1125 29.927 85.1923 29.8871C85.2721 29.8472 85.3519 29.7674 85.3918 29.6876C85.4217 29.6277 85.4516 29.5679 85.4647 29.4912L85.4716 29.4083H85.4317V28.6501ZM98.7592 27.2535C98.5996 27.2535 98.44 27.2934 98.3602 27.3732C98.2404 27.4131 98.1606 27.5328 98.1207 27.6525C98.0908 27.7423 98.0609 27.8545 98.0478 27.9724L98.0409 28.0915V29.2087C98.0409 29.3684 98.0409 29.528 98.1207 29.6477C98.2005 29.7674 98.2803 29.8472 98.3602 29.927C98.4799 30.0068 98.5996 30.0467 98.7592 30.0467C99.0385 30.0467 99.1981 29.927 99.3178 29.7275C99.4375 29.4881 99.4774 29.1289 99.4774 28.6501C99.4774 28.1962 99.4469 27.8645 99.359 27.655L99.3178 27.5727C99.238 27.3732 99.0385 27.2535 98.7592 27.2535ZM46.0877 28.6501C46.0078 28.69 45.928 28.7299 45.8083 28.7698C45.7285 28.8097 45.6088 28.8496 45.529 28.8496C45.2497 28.9294 45.0502 28.9693 44.9305 29.089C44.8906 29.089 44.8906 29.1289 44.8507 29.1688C44.8108 29.2486 44.7709 29.3684 44.7709 29.4881C44.7709 29.6477 44.8108 29.7674 44.8906 29.8871C44.9704 30.0068 45.0901 30.0467 45.2896 30.0467C45.3694 30.0467 45.4891 30.0467 45.5689 30.0068C45.6886 29.9669 45.7684 29.927 45.8482 29.8871C45.928 29.8472 46.0078 29.7674 46.0477 29.6876C46.0777 29.6277 46.1076 29.5679 46.1207 29.4912L46.1276 29.4083H46.0877V28.6501ZM41.9378 25.418V26.2959H40.5811V25.418H41.9378ZM56.0633 2.15473V4.7085H48.3222C47.993 4.7085 47.6973 4.97674 47.6503 5.29806L47.6439 5.38685V8.57906C47.6439 8.72094 47.7384 8.86282 47.9837 8.89259L48.0828 8.89828H57.0609V11.4521H48.9606C48.821 11.4521 48.7424 11.5437 48.7784 11.6468L48.801 11.6915L48.7701 11.7475L49.7587 13.4073C51.1574 15.6996 53.5397 19.2025 54.6586 19.3852L54.7465 19.3927H57.021V21.9864L53.6503 21.986C52.7328 21.9786 51.9038 21.8391 50.5168 19.9513C49.4794 18.5148 48.3222 16.8788 47.0453 15.0034L47.0741 14.9466L46.0877 13.527C46.0078 13.4073 45.928 13.527 45.928 13.527C43.893 16.4798 42.9353 17.9163 41.4589 19.9114C40.072 21.8378 39.2058 21.9414 38.3216 21.9462L34.9548 21.9465V19.3528H37.1894C38.6259 19.3528 42.4565 13.0083 43.1748 11.6915C43.209 11.5889 43.1552 11.4863 43.0638 11.459L43.0151 11.4521H34.9149V8.89828H43.9329C44.0726 8.89828 44.2122 8.80663 44.245 8.65006L44.2521 8.57906V5.38685C44.2521 5.05765 43.9839 4.76198 43.6626 4.71499L43.5738 4.7085H35.8327V2.15473H56.0633ZM81.3616 13.0482V15.0034H76.8526C76.7329 15.0034 76.6531 15.163 76.693 15.2428C77.9699 17.3577 78.4886 18.0759 79.4463 19.5124C79.8852 20.1508 80.6035 20.0311 81.4813 20.0311H81.9602V21.9864H79.4064C77.8502 21.9864 77.7704 21.5075 76.294 19.273C75.1368 17.5173 73.9796 15.6418 73.022 14.0058C72.7825 13.5669 73.1417 13.0482 73.6604 13.0482H81.3616ZM108.934 20.0311V21.9864H85.2322V20.0311H108.934ZM79.7655 1.83551C81.025 1.83551 81.8465 2.63869 81.9854 3.58156L82.0001 3.71094V11.0131C82.0001 11.3423 81.7318 11.638 81.4105 11.685L81.3217 11.6915H72.0643C71.8897 11.6915 71.8374 11.7831 71.827 11.9397L71.8249 12.0107V19.3129C71.8249 19.6421 71.9925 19.9713 72.2971 20.0239L72.3835 20.0311H74.5782V21.9864H70.2687C69.3566 21.9864 68.6255 21.2987 68.558 20.4059L68.5529 20.2705L68.5928 3.59123C68.5928 2.67709 69.3199 1.90839 70.2536 1.8404L70.3884 1.83551H79.7655ZM66.2784 2.11483C66.9169 2.11483 67.4139 2.60968 67.4369 3.1669L67.4356 3.27201V21.6272H61.5699C60.6958 21.6272 59.9665 20.9758 59.8991 20.1209L59.894 19.9912V3.31191C59.894 2.67347 60.3888 2.17641 60.9793 2.12014L61.0911 2.11483H66.2784ZM64.7621 15.7615H62.5675C62.4278 15.7615 62.2881 15.8532 62.2554 16.0098L62.2482 16.0808V18.5547C62.2482 19.1556 62.7431 19.6505 63.3668 19.7066L63.4852 19.7119H65.0813V16.0808C65.0813 15.9212 64.9616 15.7615 64.7621 15.7615ZM98.9188 1.83551V2.79317C98.9188 2.93283 99.0105 3.07249 99.167 3.10523L99.238 3.1124H108.934V5.14743H102.989C102.829 5.14743 102.749 5.34695 102.989 5.46665C103.827 6.02529 105.503 6.98296 106.261 7.38198C106.452 7.47775 106.669 7.54798 106.892 7.57224L107.059 7.5815H109.014V10.0555H107.179V16.9187C107.179 17.9111 106.412 18.6479 105.437 18.7101L105.303 18.7143H89.0229C87.9924 18.7143 87.1809 17.9842 87.1123 17.0127L87.1076 16.8788V10.0555H85.2721V7.5815H87.2273C87.5066 7.5815 87.7859 7.50169 88.0254 7.38198C88.6638 6.98296 90.22 6.2248 91.2974 5.46665C91.4393 5.36025 91.392 5.19078 91.2676 5.15444L91.2176 5.14743H85.2721V3.1124H94.9684C95.1081 3.1124 95.2478 3.02074 95.2805 2.86417L95.2877 2.79317V1.83551H98.9188ZM104.106 14.8039H89.9806V15.8414C89.9806 16.4025 90.4365 16.648 91.184 16.6765L91.3373 16.6793H102.869C103.505 16.6793 104.036 16.504 104.1 15.956L104.106 15.8414V14.8039ZM64.802 9.85595H62.6074C62.4677 9.85595 62.328 9.9476 62.2953 10.1042L62.2881 10.1752V13.2078C62.2881 13.3474 62.3798 13.4871 62.5364 13.5198L62.6074 13.527H64.802C64.9417 13.527 65.0813 13.4353 65.1141 13.2788L65.1212 13.2078V10.1752C65.1212 10.0156 65.0015 9.85595 64.802 9.85595ZM103.812 10.8474L103.747 10.8535H90.2998C90.1602 10.8535 90.0205 10.9452 89.9878 11.1017L89.9806 11.1727V12.9285H104.106V11.1727C104.106 11.0176 104.01 10.8865 103.873 10.8547L103.812 10.8474ZM79.167 7.5815H71.785V9.73624H79.167V7.5815ZM95.0083 5.98539C93.1462 7.10266 91.7707 7.9071 90.525 8.75557L90.2599 8.93819H103.827C101.592 7.5815 101.113 7.10266 99.1582 5.98539C99.0898 5.95119 98.9628 6.00493 98.9279 6.09637L98.9188 6.145V8.45935H95.2877V6.145C95.2877 5.98539 95.128 5.90558 95.0083 5.98539ZM64.802 4.14987H62.6074C62.4677 4.14987 62.328 4.24152 62.2953 4.39809L62.2881 4.46909V7.50169C62.2881 7.64135 62.3798 7.78101 62.5364 7.81374L62.6074 7.82091H64.802C64.9417 7.82091 65.0813 7.72926 65.1141 7.57269L65.1212 7.50169V4.46909C65.1212 4.30948 65.0015 4.14987 64.802 4.14987ZM77.8901 3.67103H72.1042C71.9645 3.67103 71.8249 3.76268 71.7921 3.91926L71.785 3.99025V5.70607H79.1271V4.82821C79.1271 4.18977 78.5684 3.67103 77.8901 3.67103Z" fill="#17304D"/>
  </g>
  <defs>
    <clipPath id="clip0_591_8555">
      <rect width="110.222" height="32" fill="white"/>
    </clipPath>
  </defs>
</svg>
